<svg width="1500" height="364" viewBox="0 0 1500 364" fill="none" xmlns="http://www.w3.org/2000/svg">
<path d="M183.6 357.6V213.2H82.4V357.6H1.37091e-06V41.2C1.37091e-06 14.4 19.6 0.399981 41.2 0.399981C62.8 0.399981 82.4 14.4 82.4 41.2V143.6H183.6V41.2C183.6 14.4 203.2 0.399981 224.8 0.399981C246.4 0.399981 266 14.4 266 41.2V357.6H183.6ZM392.156 88.4V145.6H501.356C524.556 145.6 533.756 164.8 533.756 180.8C533.756 196.8 524.956 214.8 501.356 214.8H392.156V276C392.156 285.6 394.556 287.6 403.756 287.6H508.956C532.556 287.6 541.356 305.6 541.356 322C541.356 338.4 532.156 357.6 508.956 357.6H372.556C324.556 357.6 310.156 340.4 310.156 294.4V70C310.156 24 324.556 6.79999 372.556 6.79999H504.956C528.156 6.79999 537.356 26 537.356 42.4C537.356 58.8 528.556 76.8 504.956 76.8H403.756C394.556 76.8 392.156 78.8 392.156 88.4ZM705.791 76H600.991C577.391 76 568.591 57.6 568.591 41.6C568.591 26 577.791 6.79999 600.991 6.79999H754.991C777.391 6.79999 794.191 13.2 802.191 27.2C809.791 40.8 810.191 60.4 791.391 90L664.991 288.4H779.391C802.991 288.4 812.191 306.8 812.191 322.4C812.191 338.4 802.591 357.6 779.391 357.6H615.391C592.991 357.6 576.591 351.6 568.191 337.2C561.391 325.6 559.391 305.2 578.991 274.4L705.791 76ZM837.741 320C837.741 295.2 853.741 279.6 880.541 279.6C907.341 279.6 923.341 295.6 923.341 320C923.341 344.4 907.341 360.4 880.541 360.4C853.741 360.4 837.741 344.8 837.741 320ZM1203.32 212V250.4C1203.32 331.6 1146.12 364 1077.72 364C1008.52 364 938.922 330 938.922 242.4V122C938.922 33.6 1008.52 0.399981 1078.92 0.399981C1115.72 0.399981 1148.12 8.79999 1163.72 20C1180.12 31.6 1188.12 50.8 1178.52 67.6C1170.52 81.6 1155.72 87.2 1142.12 84.8C1132.92 83.2 1126.12 78.8 1120.12 76.4C1110.52 72.8 1096.52 71.2 1078.92 71.2C1050.92 71.2 1020.52 88.8 1020.52 125.6V238.8C1020.52 275.6 1048.92 293.2 1077.72 293.2C1104.92 293.2 1130.12 280 1130.12 251.6V230C1130.12 222 1128.52 220.8 1120.92 220.8H1107.72C1084.52 220.8 1075.72 203.2 1075.72 187.2C1075.72 171.2 1084.92 152.4 1107.72 152.4H1144.12C1191.32 152.4 1203.32 167.2 1203.32 212ZM1499.81 212V250.4C1499.81 331.6 1442.61 364 1374.21 364C1305.01 364 1235.41 330 1235.41 242.4V122C1235.41 33.6 1305.01 0.399981 1375.41 0.399981C1412.21 0.399981 1444.61 8.79999 1460.21 20C1476.61 31.6 1484.61 50.8 1475.01 67.6C1467.01 81.6 1452.21 87.2 1438.61 84.8C1429.41 83.2 1422.61 78.8 1416.61 76.4C1407.01 72.8 1393.01 71.2 1375.41 71.2C1347.41 71.2 1317.01 88.8 1317.01 125.6V238.8C1317.01 275.6 1345.41 293.2 1374.21 293.2C1401.41 293.2 1426.61 280 1426.61 251.6V230C1426.61 222 1425.01 220.8 1417.41 220.8H1404.21C1381.01 220.8 1372.21 203.2 1372.21 187.2C1372.21 171.2 1381.41 152.4 1404.21 152.4H1440.61C1487.81 152.4 1499.81 167.2 1499.81 212Z" fill="#65E3E3"/>
</svg>
